<svg width="600" height="600" xmlns="http://www.w3.org/2000/svg" preserveAspectRatio="xMidYMid meet">

 <g>
  <title>background</title>
  <rect fill="none" id="canvas_background" height="402" width="582" y="-1" x="-1"/>
 </g>
 <g>
  <title>Layer 1</title>
  <path id="svg_2" d="m386,92.199989c-1.100006,1.200005 -2,2.800003 -2,3.5c0,0.700005 -1.299988,1.900002 -3,2.800003c-2.699982,1.400002 -2.899994,1.900002 -2.600006,6.400002c0.200012,2.699997 0.600006,5.400002 1,6c0.400024,0.599998 3.100006,1.099998 6.100006,1.099998c6.100006,0 10.200012,2.599998 12.800018,8.199997c7.599976,16.599998 9,22.000008 8.5,34.800011c-0.100006,5.399994 -0.600006,10.199997 -1.100006,10.599991c-0.399994,0.400009 -4.899994,-0.399994 -10,-1.899994c-12.700012,-3.600006 -20.300018,-4.699997 -33.800018,-4.699997c-10.299988,0 -11.899994,0.199997 -14.299988,2.099991l-2.600006,2l-8,-7.300003c-7.5,-6.899994 -8,-7.5 -8,-11.5c0,-4.899994 -2.799988,-7.699997 -6.399994,-6.399994c-1.700012,0.699997 -3.200012,-0.199997 -8.100006,-4.600006c-3.299988,-3 -8.899994,-6.799995 -12.5,-8.599998c-5.5,-2.699997 -7.5,-3.199997 -14,-3.199997c-6.600006,0 -8.199982,0.400002 -13.799988,3.400002c-7.100006,3.899994 -12.300018,9.199997 -27.000015,27.899994l-9.699997,12.200012l-2.899994,-3.5c-3.300003,-4.100006 -7.800003,-6.800003 -10,-5.900009c-2.5,1 -3.100006,4.600006 -3.600006,22.600006c0,1.399994 -0.800003,1.800003 -3.300003,1.800003l-3.299988,0l-1.200012,-9c-0.699997,-4.900009 -1.699997,-10.100006 -2.399994,-11.5c-2.5,-5.600006 -10.100006,-1.200012 -13.899994,8c-1.200012,3 -2.5,5.5 -2.800003,5.5c-0.300003,0 -1.5,-0.700012 -2.5,-1.5c-2.900009,-2.200012 -5.5,-1.800003 -6.800003,1.099991c-1,2.100006 -1.600006,2.400009 -3.699997,1.900009c-1.400009,-0.400009 -4.600006,-0.800003 -7,-1c-5.100006,-0.400009 -6.199997,-1.5 -8.699997,-8.400009c-3.5,-10.099991 -4.700012,-12.099991 -6.700012,-12.099991c-1.099991,0 -2.899994,0.699997 -3.899994,1.699997c-1.600006,1.399994 -2,1.5 -3.5,0.099991c-1,-0.899994 -3.699997,-2.5 -6,-3.699997c-2.300003,-1.099991 -5.399994,-3.300003 -7,-4.699997c-3.800003,-3.600006 -12.099998,-8.800003 -16.200005,-10.199997c-1.899994,-0.699997 -6.599998,-1.199997 -10.5,-1.199997c-12.5,0.099991 -20.199997,5.099991 -31.399994,20.699997c-8.300003,11.599991 -13.200005,21.099991 -13.200005,25.399994c0,4.800003 6.800003,16.699997 13.300003,23.199997c11.599998,11.600006 25.900002,15.800003 41,11.800003c4.299995,-1.099991 8.199997,-2.300003 8.699997,-2.599991c1.5,-0.900009 1.199997,3.399994 -0.5,9.099991c-2.400002,8.199997 -8.900002,17 -23.400002,31.900009c-7.5,7.699982 -15.899994,16.899994 -18.599998,20.5c-2.699997,3.600006 -7.799995,10 -11.299995,14.299988c-3.400002,4.300018 -7.300003,9.600006 -8.700005,11.700012c-3.799999,6 -9,19.399994 -12.099998,31c-2.700001,9.899994 -2.900002,11.699982 -2.900002,31c0,22.5 0.700001,26.5 6.700001,38.399994c11.899998,23.700012 28.399998,37.600006 50.799999,43c11,2.600006 37.300003,6.600006 43.699997,6.600006l3.800003,0l7.199997,22.799988c4,12.5 8,25.600006 8.800003,29.200012c3.300003,13.5 8.800003,30.700012 11.600006,36.099976c4.300003,8.600037 10.800003,10.5 32.699997,9.600037c21.899994,-0.900024 25.600006,-2.299988 30.199997,-11.200012c4.100006,-7.799988 4.800003,-8 17,-3.900024c21.100006,7.100037 43,10.5 68.300018,10.600037c15.399994,0 16.799988,0.200012 17.699982,1.899963c2.200012,4 6.100006,4.900024 21.700012,4.900024c20.699982,0.099976 30.199982,-1.799988 34.699982,-6.799988c2.300018,-2.700012 2.900024,-2.299988 6.200012,3.799988c3.799988,7 8.100006,8.5 21.200012,7.700012c25.299988,-1.600037 39.199982,-8.100037 42.699982,-20.100037c1,-3.399963 1.5,-9.599976 1.5,-19.299988l0,-14.399994l6.899994,0.300018c9.800018,0.399994 10.100006,0 10.100006,-13.300018l0,-10.799988l3.800018,-0.700012c5.299988,-1 10.899994,-4 12.800018,-6.899994c1.399963,-2.100006 1.599976,-4.5 1.199951,-13.700012l-0.5,-11.099976l6.200012,-6.600006c9.100037,-9.800018 15.5,-18 15.5,-19.899994c0,-1 -0.700012,-2.800018 -1.599976,-4c-1.400024,-2.100006 -1.400024,-2.700012 0.700012,-7.700012l2.299988,-5.5l-2.600037,-7.800018c-2.299988,-6.699982 -2.5,-8.5 -1.799988,-14.199982c1.100037,-8.300018 2.700012,-23.399994 4,-38c0.600037,-6.300018 1.900024,-15.600006 3,-20.600006c1,-5 3,-16.5 4.400024,-25.5c1.399963,-9 3,-19.200012 3.599976,-22.5c0.5,-3.399994 1,-13.299988 1,-22.100006c0,-24 -1.899963,-31.299988 -9.299988,-37c-5.900024,-4.399994 -15.200012,-7.299988 -26.200012,-8c-8.5,-0.5 -9.399994,-0.799988 -10.399994,-2.899994c-1.5,-3.300003 -5.100006,-3.100006 -8.600006,0.600006l-2.899994,3l-11.799988,0l-11.800018,0l-2.399994,-3.900009c-3.100006,-4.899994 -16,-15.300003 -27.600006,-22.099991c-4.899994,-2.900009 -8.699982,-5.700012 -8.399994,-6.100006c0.299988,-0.5 0.899994,-6.100006 1.5,-12.5c1.5,-17.399994 -1.600006,-31.100006 -10,-44.099998c-4.299988,-6.700005 -14.100006,-16.700005 -20,-20.300003c-2.200012,-1.400002 -4.700012,-3.699997 -5.600006,-5.300003c-2,-3.299995 -5.600006,-3.599998 -8.5,-0.5zm5,5.800003c0,0.5 2.5,2.800003 5.5,5.099998c5,3.700005 7.5,7.800003 7.5,12.099998c0,0.5 -2.799988,-1.5 -6.199982,-4.199997c-4,-3.199997 -7.200012,-5 -8.900024,-5c-3.599976,0 -4.399994,-3.199997 -1.599976,-6.5c2.299988,-2.599998 3.699982,-3.199997 3.699982,-1.5zm20,18.199997c4.5,5.700005 4.600006,6.600006 1.899994,16.300011l-1.099976,4l-2.5,-6.5c-2,-5.300011 -4,-19.000008 -2.800018,-19.000008c0.200012,0 2.200012,2.400002 4.5,5.199997zm10.5,19.500008c1.5,4.899994 1.5,5.399994 -0.399994,9c-1,2.099991 -3.100006,4.899994 -4.5,6.199997c-2.399994,2.300003 -2.600006,2.300003 -2.700012,0.5c0,-1 -0.399994,-4.399994 -0.799988,-7.399994c-0.600006,-3.900009 -0.399994,-6.100006 0.5,-7.5c0.700012,-1.100006 1.799988,-3.900009 2.5,-6.300003c1.200012,-4.200005 1.299988,-4.300003 2.600006,-2c0.699982,1.300003 2,4.599991 2.799988,7.5zm-122.699982,-5.699997c3.799988,1.799988 8.899994,5.5 12.599976,9c5.700012,5.399994 6.600006,6 8.800018,5.099991c2.5,-0.899994 2.600006,-0.800003 3,3.900009c0.299988,3.299988 1.399994,6 3.399994,8.699997c2.399994,3.099991 10.399994,15.899994 10.399994,16.599991c0,0.100006 -3.600006,0.300003 -7.899994,0.5c-4.299988,0.100006 -10.100006,0.900009 -12.700012,1.700012c-7.199982,2.199997 -8.5,1.899994 -16.399994,-3.200012l-7.299988,-4.699997l3,-0.800003c5.799988,-1.5 5.899994,-2.899994 1.399994,-12c-5.600006,-11.5 -9.299988,-15.799988 -13.5,-15.799988c-3.399994,0 -5.600006,1.5 -5.600006,3.799988c0,1 0.800018,1.200012 2.899994,0.700012c2.800018,-0.600006 3.100006,-0.300003 8,8.699997l5,9.300003l-3,1.299988c-1.699982,0.700012 -3.299988,2.200012 -3.599976,3.200012c-0.300018,1.199997 -1.900024,2.399994 -4.200012,3c-2,0.5 -6.299988,2.5 -9.5,4.5c-3.200012,1.899994 -6.100006,3.5 -6.5,3.5c-0.399994,0 -1.5,-1.400009 -2.5,-3.100006c-1.299988,-2.100006 -2.399994,-2.899994 -3.899994,-2.699997c-3,0.399994 -3.300018,3.5 -0.899994,6.800003l2.099976,2.699997l-7.799988,6.300003c-4.300003,3.5 -8.300003,6.099991 -8.699997,5.899994c-0.5,-0.199997 -0.900009,-3.100006 -1,-6.399994c0,-3.300003 -0.700012,-7.800003 -1.400009,-10.100006l-1.300003,-4l11.800003,-15.5c18.200012,-23.800003 21.899994,-27.300003 30.399994,-29c6.5,-1.200005 8.5,-0.900002 14.900024,2.100006zm-175.70002,14.599991c2.800003,1.400009 7.099998,4.400009 9.599998,6.699997c6.300003,5.800003 14.300003,17.400009 14.300003,20.700012c0,2.599991 -3.300003,12.899994 -6.399994,20.199997c-2.100006,5 -2,8.399994 0.399994,10.800003c2.300003,2.299988 1.100006,3.399994 -2.300003,2.099991c-1.699997,-0.699997 -3.899994,-0.5 -7.299988,0.600006c-18.500008,5.699997 -26.200005,6 -36.000008,1c-6.300003,-3.199997 -15.5,-12.900009 -19.099998,-20.100006l-2.700005,-5.599991l3.100006,-6.300003c3.299995,-6.699997 12.899994,-20.100006 18.399994,-25.600006c7.5,-7.5 18.600006,-9.300003 28,-4.5zm300.500008,16c-0.600006,1.600006 -6.5,5.400009 -8.299988,5.400009c-0.800018,0 -1.300018,-1.400009 -1.300018,-3.900009c0,-3.199997 0.600006,-4.300003 3.399994,-6.399994c1.800018,-1.400009 3.900024,-4.100006 4.700012,-5.900009l1.399994,-3.299988l0.300018,6.399994c0.199982,3.5 0.099976,7 -0.200012,7.699997zm-267.900009,1.199997c1.100006,-0.899994 1.600006,-0.899994 2.400009,0.300003c0.5,0.800003 0.899994,2.100006 0.899994,2.900009c0,0.799988 0.900009,3 2,4.799988c2.600006,4.200012 2.5,6.400009 -0.099991,8.800003c-3.200012,2.900009 -2.400009,13 1.799988,21.5c1.800003,3.5 2.800003,6.5 2.300003,6.699997c-1.599991,0.600006 -1.199997,6 0.600006,8.700012c2.5,3.799988 1,5.899994 -7.400009,10.199997c-9.799988,5.199997 -10.399994,7.199997 -3.299988,10.800003c2.799988,1.399994 5.099991,2.799988 5.099991,3.099991c0,0.400009 -1.399994,3.199997 -3,6.300003c-4.099991,7.600006 -18.699997,24.200012 -39.400002,44.600006c-16,15.699982 -17.599998,17.699982 -21.799995,26c-2.5,4.899994 -5.800003,12.799988 -7.400002,17.5c-2.699997,7.799988 -2.900002,9.699982 -2.800003,22c0,11.799988 0.400002,14.5 2.700005,21.600006c4.799995,14.5 18.299995,30.299988 31.199997,36.399994c3.300003,1.600006 9.900009,3.700012 14.800003,4.700012c7,1.399994 8.800003,2.199982 9.300003,3.799988c0.399994,1.100006 2.599991,6.100006 4.899994,11.200012l4.300003,9.199982l-10.600006,-0.5c-12.899994,-0.600006 -28.399994,-2.899994 -36.799995,-5.5c-18.900002,-5.799988 -38,-26.699982 -44.900002,-48.899994c-2.5,-8.300018 -3.200001,-33 -1.099998,-44.600006c3.299999,-19.100006 9.800003,-35.200012 18.800003,-46.600006c2.899994,-3.699982 8.899994,-11.299988 13.399994,-17c4.400002,-5.699982 13,-15.299988 19.100006,-21.299988c17.700005,-17.600006 24.299995,-27.800003 26.200005,-40.5c0.599991,-4.400009 0.699997,-4.5 3.899994,-4.200012c2.699997,0.300003 3.899994,-0.299988 6.800003,-3.299988c4,-4.300003 4.199997,-6.400009 1.099991,-10.100006l-2.299988,-2.699997l3.899994,-10.100006c4.699997,-12 5.300003,-18.899994 2.100006,-23.300003c-3.600006,-5 -3.900009,-5.799988 -1,-3.5c2.299988,1.800003 3.199997,2 4.299988,1zm81.300003,17c2.300003,6.100006 2.5,7.5 0.800003,7c-0.699997,-0.199997 -3.399994,-1 -6,-1.799988l-4.699997,-1.400009l0.300003,-9.5c0.199997,-5.300003 0.399994,-9.800003 0.5,-10.099991c0.299988,-1.200012 7.299988,10.899994 9.099991,15.799988zm-30.5,-9.199997c1.5,10.300003 1.800003,12 2.600006,12.900009c0.5,0.699997 -1.400009,2 -5.199997,3.699997l-5.900009,2.599991l0,-3.099991c0,-5.300003 6.100006,-21.900009 7.5,-20.5c0.300003,0.199997 0.699997,2.199997 1,4.399994zm182.600006,-1.300003c12.600006,3.300003 34.5,12.100006 44.5,18c4.399994,2.600006 12.399994,8.300003 17.700012,12.700012l9.699982,8l-1.5,3.099991c-1.600006,3 -1.600006,3 -4.299988,1.300003c-21.399994,-14.199997 -47,-25.800003 -69.300018,-31.300003c-7.299988,-1.800003 -32.899994,-6.099991 -36.599976,-6.099991c-1.200012,0 -1.100006,-0.800003 1,-6.400009l1.099976,-2.899994l14,0.599991c10.300018,0.400009 16.700012,1.200012 23.700012,3zm34.200012,0.400009c-0.300018,2.099991 -0.700012,3.899994 -0.800018,4.099991c-0.199982,0.200012 -1.699982,-0.299988 -3.5,-1l-3.299988,-1.399994l3.899994,-2.600006c2.200012,-1.5 4,-2.699997 4.100006,-2.699997c0.100006,-0.099991 -0.100006,1.600006 -0.399994,3.600006zm-127.600006,8.5c11.5,6.899994 14.399994,8.800003 16.299988,11c1.100006,1.300003 5.5,2.199997 18.200012,3.800003c20.100006,2.399994 44.5,7.799988 60.299988,13.199997c15.700012,5.399994 41.700012,20.599991 65.5,38.300003c11.300018,8.399994 12.800018,9.199997 16.100006,8.799988c4.700012,-0.599991 22.799988,3.300003 25.200012,5.5c3,2.700012 4.599976,6.600006 7.199982,17c3,12.300018 4.899994,24.800018 4,27c-0.600006,1.600006 -0.699982,1.600006 -1.600006,-0.100006c-1.799988,-3.199982 -2.799988,-0.699982 -1.399994,3.300018c2.200012,6.199982 3,16 1.5,17c-1.799988,1.100006 -5,11.600006 -5,16.199982c0,2.100006 -1.100006,6.300018 -2.5,9.400024c-1.399994,3.099976 -2.5,7.299988 -2.5,9.399994c0,6 -0.799988,6.199982 -20.5,5.699982l-17.600006,-0.599976l-9.699982,-6.5c-10.5,-7 -15.200012,-11 -15.200012,-12.900024c0,-0.699982 -4,-5.299988 -8.899994,-10.399994c-11.700012,-12 -14.399994,-17.5 -17.5,-35.399994c-1.399994,-7.799988 -3.5,-14.100006 -8.700012,-25.700012c-3.099976,-6.899994 -10,-13.5 -18.099976,-17.299988c-6.700012,-3.100006 -8.100006,-3.399994 -16.800018,-3.399994c-8.299988,0 -10.299988,0.399994 -15.699982,2.899994c-3.5,1.600006 -6.300018,3.299988 -6.300018,3.799988c0,0.5 -0.399994,0.600006 -1,0.300018c-0.5,-0.300018 -1,-0.200012 -1,0.399994c0,0.600006 -0.600006,0.799988 -1.299988,0.5c-0.700012,-0.200012 -4.899994,2 -9.300018,5.100006c-12.799988,8.899994 -17.5,11.399994 -24.899994,13c-8.600006,2 -27.199982,3.600006 -38,3.5c-4.399994,-0.100006 -7.699982,0.100006 -7.399994,0.399994c1.100006,1.200012 15.899994,2.700012 26.399994,2.700012c16.899994,0 23.700012,-2.300018 38.100006,-12.700012c9.299988,-6.700012 19.200012,-11.5 29.600006,-14.399994c6.899994,-1.900009 8,-1.900009 14.199982,-0.600006c11.600006,2.399994 24.700012,12.5 30.600006,23.600006c0.700012,1.399994 1.899994,6.100006 2.600006,10.5c0.700012,4.399994 1.799988,11.100006 2.399994,15c1.100006,7.100006 4.200012,16.100006 6.800018,20.199982c2.299988,3.600006 0,2.700012 -3.100006,-1.199982c-3.5,-4.300018 -4.300018,-7 -5.600006,-16.300018c-0.600006,-4.399994 -1.899994,-9 -3.5,-11.799988c-1.399994,-2.600006 -2.600006,-5.399994 -2.600006,-6.299988c0,-2.5 -8.399994,-12.600006 -13.299988,-16c-2.5,-1.700012 -8,-4.200012 -12.300018,-5.700012c-6.699982,-2.200012 -9,-2.600006 -15.599976,-2.100006c-4.700012,0.300018 -9.400024,1.300018 -12,2.5c-2.400024,1.200012 -6.5,3 -9.100006,4.100006c-2.600006,1.100006 -6.700012,3.600006 -9,5.5c-21.700012,18.200012 -29.899994,21 -55.5,18.700012c-10.700012,-1 -13.900009,-1.700012 -24.500015,-5.700012c-14.899994,-5.700012 -20.5,-8.5 -23.299988,-11.600006c-2.700012,-2.899994 -5.400009,-11 -5.400009,-16.100006l0,-3.899994l5.199997,4.600006c5.900009,5.100006 16.5,11 21.800003,12.100006l3.5,0.699982l-4.5,-2.899994c-2.5,-1.600006 -6.699997,-4.199982 -9.5,-5.799988c-2.699997,-1.5 -7,-4.399994 -9.399994,-6.399994c-4.199997,-3.400024 -4.300003,-3.700012 -3.800003,-8.100006c0.5,-4.300003 3.899994,-12 8.100006,-18.200012c1.5,-2.299988 1.599991,-2.899994 0.399994,-3.299988c-0.800003,-0.300003 -1.5,-1.200012 -1.5,-2c0,-1.800003 0.699997,-1.800003 3,-0.100006c1.600006,1.300003 1.600006,1.600006 -0.5,6.199997c-2.600006,5.800003 -4,15.400009 -2.199997,14.699997c0.699997,-0.199997 1.699997,-3 2.199997,-6.199997c0.600006,-3.199997 1.899994,-7.800003 3,-10.199997c1.100006,-2.399994 2.300003,-5.300003 2.699997,-6.399994c0.600006,-2.200012 6.900009,-7.100006 13.199997,-10.300003c3,-1.600006 4.200012,-2.900009 4.700012,-5.300003c0.299988,-1.699997 0.299988,-3.5 0,-4c-0.700012,-1.199997 -5.400009,2 -5.400009,3.699997c0,1.800003 -6.199997,5.600006 -12.199997,7.600006l-4.699997,1.5l1.599991,-3.100006c2.700012,-5.199997 13.200012,-15.399994 25.100006,-24.199997c17.599991,-13.199997 26.800003,-18.5 33.599991,-19.300003c0.5,-0.099991 3.300018,1.400009 6.300018,3.100006zm-104.700012,6.899994c0,2.699997 -0.399994,4.900009 -1,4.900009c-0.5,0 -1,-2.5 -1,-5.600006c0,-3.399994 0.400009,-5.300003 1,-4.899994c0.600006,0.299988 1,2.799988 1,5.599991zm-10.5,-3l3,0.900009l0.100006,9.399994l0.099991,9.399994l-5.5,1.600006c-3.099991,0.800003 -5.699997,1.5 -5.699997,1.300003c-2.399994,-3.199997 -5.5,-10.5 -6.399994,-15c-1.199997,-5.300003 -1.100006,-6 0.5,-7.900009c1.5,-1.599991 2.599991,-1.899994 6.399994,-1.299988c2.5,0.299988 5.900009,1 7.5,1.599991zm178.5,0.400009c43.200012,5.799988 81.100006,23.799988 111.800018,53c11.799988,11.199997 11.899994,11.899994 -1.100006,-8.200012c-4.700012,-7.199997 -5.5,-8.899994 -3.700012,-7.799988c0.5,0.299988 5.600006,-0.600006 11.200012,-2c5.699982,-1.400009 11.299988,-2.5 12.5,-2.5c1.199982,0 3.799988,-1.600006 5.600006,-3.5l3.5,-3.600006l1,2.899994l1,2.800003l9.5,0.100006c11.899994,0 18.600006,2.199997 24.199982,7.800003c2.299988,2.299988 4.600037,5.799988 5.299988,8.099991c1.600037,5.5 1.5,17.600006 -0.199951,30.500015c-0.800049,5.699982 -1.700012,13.299988 -2.100037,16.899994c-1.599976,16.799988 -6.200012,45.100006 -7.5,46.399994c-0.5,0.5 -1.299988,-1 -2,-3.5c-2.399963,-9.399994 -3.399963,-11.600006 -8.299988,-18.399994c-4.400024,-6.100006 -5.200012,-8 -6.400024,-15c-1.899994,-11.600006 -5.999969,-25.600006 -8.499969,-28.899994l-2.100006,-2.900009l3.399994,-2.800003c3.200012,-2.600006 3.299988,-2.899994 2.200012,-6c-0.700012,-1.800003 -1.100006,-3.399994 -0.900024,-3.600006c0.700012,-0.699997 17.800018,-6.299988 19.100006,-6.299988c0.799988,0 1.700012,0.899994 2,2.099991c0.799988,2.5 2.900024,2 3.299988,-0.899994c0.5,-3 -3.199951,-6.199997 -7.099976,-6.199997c-3.5,0 -10.700012,1.899994 -19.399994,5.199997c-4.300018,1.599991 -5.300018,2.399994 -5.300018,4.199997c0,1.300003 0.700012,2.899994 1.5,3.600006c2.100006,1.699997 1.899994,3 -0.5,3c-1.299988,0 -2,0.699997 -2,2c0,1.099991 -0.100006,2 -0.199982,2c-0.200012,0 -3.900024,-0.700012 -8.300018,-1.5c-4.399994,-0.900009 -10.399994,-1.5 -13.299988,-1.400009c-5.200012,0.300003 -5.399994,0.199997 -17.5,-8.800003c-15.200012,-11.199997 -41,-28.099991 -45.700012,-29.799988c-1.899994,-0.700012 -6.199982,-2.600006 -9.5,-4.300003c-3.299988,-1.600006 -9.100006,-3.900009 -13,-5.199997c-3.799988,-1.300003 -9,-3.100006 -11.5,-4.100006c-2.5,-1 -8.5,-2.5 -13.5,-3.399994c-4.899994,-0.800003 -12.100006,-2.200012 -16,-3c-3.799988,-0.800003 -13.5,-2.200012 -21.5,-3.100006c-14.399994,-1.699997 -18.5,-2.800003 -15.799988,-4.5c2.100006,-1.399994 34.5,-1 45.799988,0.600006zm-129.399994,6.399994c3.800003,1.100006 7.099991,3.800003 8.899994,7.199997c1.300003,2.5 1.199997,2.800003 -2.5,6.400009c-3.800003,3.699997 -3.800003,3.699997 -4.5,1.399994c-1.099991,-3.399994 -2.399994,-4.899994 -4.099991,-4.199997c-1.100006,0.399994 -1.300003,2.199997 -1.100006,7.599991c0.199997,6.400009 0,7.200012 -1.800003,7.5c-1.099991,0.200012 -2.800003,1.100006 -3.800003,2c-1.5,1.300003 -2.299988,1.400009 -5.299988,0.300003c-3.600006,-1.300003 -5.100006,-0.800003 -8.100006,2.699997c-2.800003,3.300003 -13.300003,-1.699997 -13.300003,-6.199997c0,-3.5 2.699997,-10.399994 6.300003,-16.399994c2.600006,-4.300003 4,-5.5 8.100006,-7.100006c5.399994,-2 16.399994,-2.699997 21.199997,-1.199997zm-38.100006,34c0.300003,0.5 -0.599991,2.199997 -2,3.699997c-2.800003,3 -3.099991,4.400009 -1.300003,6.199997c2.100006,2.100006 5.900009,1.300003 9.200012,-2.099991c2.399994,-2.300003 4,-3.100006 6,-2.900009c1.5,0.200012 2.599991,0.800003 2.399994,1.300003c-0.199997,0.5 -4.800003,3.400009 -10.199997,6.300003c-9.600006,5.100006 -10,5.199997 -15.400009,4.5c-3.099991,-0.399994 -6.5,-1.199997 -7.699997,-1.800003c-1.099991,-0.5 -4.099991,-1.699997 -6.699997,-2.699997c-2.699997,-0.899994 -4.800003,-2.100006 -4.800003,-2.5c0,-0.5 4.600006,-3.100006 10.300003,-5.899994c7.699997,-3.700012 11.300003,-5 14.899994,-5c2.600006,0 4.900009,0.399994 5.300003,0.899994zm3.5,4.600006c-0.699997,0.899994 -1.5,1.299988 -1.800003,1c-0.299988,-0.200012 0.100006,-1.100006 0.800003,-2c0.699997,-0.900009 1.5,-1.300003 1.800003,-1c0.300003,0.199997 -0.100006,1.099991 -0.800003,2zm-24.099991,16.899994c3.099991,1.100006 3.199997,1.300003 1.599991,2.600006c-1,0.799988 -3.800003,2.599991 -6.399994,4c-4.199997,2.299988 -5.900009,4.799988 -8.600006,12.600006c0,0.099976 -1.199997,0.399994 -2.699997,0.799988c-2.600006,0.600006 -2.5,0.299988 2.699997,-6.899994c2.900009,-4.100006 5.900009,-9.100006 6.5,-11c1.300003,-3.800003 1.800003,-4 6.900009,-2.100006zm36.599991,12.199997c1.300003,2.000015 1.400009,2.800003 0.5,3.400009c-0.599991,0.399994 -1.300003,2.699982 -1.399994,5c-0.199997,4.100006 -1.5,5.600006 -4.900009,5.899994c-1.299988,0.100006 0.400009,-15.300003 1.700012,-16.100006c1.799988,-1.199997 2.299988,-1 4.099991,1.800003zm-12,4.599991c-0.399994,1.800018 -0.800003,3.400024 -1,3.600006c-0.099991,0.100006 -2.599991,-0.199982 -5.599991,-0.600006l-5.400009,-0.899994l5.5,-2.5c7.100006,-3.399994 7.300003,-3.399994 6.5,0.399994zm168,7.800018c1.100006,0.399994 -1.699982,0.600006 -6.5,0.299988c-4.699982,-0.299988 -8.699982,-0.699982 -8.899994,-0.899994c-0.899994,-0.799988 13.5,-0.200012 15.399994,0.600006zm17.300018,7.399994c2,1.299988 5,3.899994 6.699982,5.700012l3,3.399994l-3.699982,-3.399994c-2,-1.800018 -5.300018,-4.400024 -7.5,-5.700012c-2.100006,-1.299988 -3.5,-2.399994 -3,-2.399994c0.399994,0 2.399994,1.100006 4.5,2.399994zm-240.300018,5.100006c-0.800003,4 -2,6.399994 -4.699997,9.199982c-4.100006,4.300018 -7.100006,12.700012 -6.100006,17.300018c0.400009,2.399994 -0.599991,4.5 -6.499992,12.899994c-9.200005,13 -9.5,13.600006 -8.900002,18.600006c0.5,5.100006 3.599998,9.399994 11,15.5c5.5,4.399994 5.5,4.600006 6.100006,11c1.5,15.799988 2.799988,25.100006 4.699997,33.200012c1.099991,4.799988 1.699997,9.199982 1.399994,9.899994c-1.599991,2.399994 -17.699997,-1.5 -24.5,-6c-5.699997,-3.800018 -14.299995,-15 -17.699997,-23.200012c-2.5,-6 -2.700005,-7.299988 -2.700005,-22.899994l-0.099998,-16.5l3.700005,-9.200012c5.699997,-14.100006 9.5,-19.399994 28.099998,-38c9.5,-9.399994 17.199997,-17.199982 17.300003,-17.199982c0,-0.100006 -0.5,2.399994 -1.100006,5.399994zm220,-2.5c0.800018,1.299988 -3.5,1.299988 -5.5,0c-1.100006,-0.700012 -0.699982,-1 1.700012,-1c1.699982,0 3.5,0.399994 3.799988,1zm-18,2.699982c-0.5,1 -1,4.700012 -1.199982,8.300018c-0.400024,5.600006 -0.100006,7.199982 2.399994,12c3.399994,6.600006 9.699982,11.299988 17.899994,13.100006c4.700012,1.099976 6.200012,1 11,-0.5c5.399994,-1.700012 12.399994,-7.300018 14.899994,-12c0.899994,-1.600006 1.600006,-0.800018 4.399994,5.899994c1.800018,4.299988 4.100006,11.899994 5.200012,16.899994c1.100006,5 2.399994,10.100006 2.899994,11.299988l0.899994,2.200012l-5.099976,-2c-2.800018,-1.100006 -6,-2.5 -7.100006,-3.100006c-1.100006,-0.5 -6.899994,-2.799988 -12.899994,-4.899994c-7.800018,-2.799988 -15.700012,-6.799988 -28.100006,-14.299988c-9.5,-5.700012 -20.200012,-11.800018 -23.700012,-13.600006c-3.600006,-1.800018 -7.5,-4 -8.799988,-4.800018c-2.300018,-1.5 -2.300018,-1.5 3,-5c5.299988,-3.599976 21.100006,-11 23.699982,-11.099976c0.900024,-0.100006 1.100006,0.5 0.600006,1.599976zm13.800018,4.400024c2.099976,0.5 5.399994,0.5 7.5,0.099976c3.299988,-0.799988 4,-0.599976 5.599976,1.5c1,1.400024 2,4.600006 2.300018,7.100006c0.600006,5.700012 1.799988,8.100006 4.5,9.100006c1.899994,0.700012 1.899994,0.799988 -0.800018,2.700012c-2.199982,1.399994 -4.599976,1.899994 -9.5,1.899994c-5.5,0 -7.199982,-0.399994 -10.799988,-2.800018c-4.700012,-3.099976 -8,-9.099976 -8.100006,-14.5c0,-4.599976 1.700012,-7.5 3.800018,-6.699982c0.899994,0.399994 3.399994,1.100006 5.5,1.600006zm22.299988,1c1.899994,2.199982 1.899994,2.199982 -0.299988,1c-1.300018,-0.600006 -2.300018,-1.600006 -2.300018,-2.100006c0,-1.5 0.5,-1.200012 2.600006,1.100006zm0.399994,8.199982l3.100006,1.399994l-2.5,1.700012c-2.600006,1.600006 -2.600006,1.600006 -3.600006,-0.899994c-1.600006,-4.100006 -1.600006,-4.100006 3,-2.200012zm141.100037,24.200012c2.899963,11.399994 4.899963,27.299988 4.799988,39.5l0,10.5l-2.400024,-6.800018c-1.5,-4.299988 -2.200012,-7.899994 -1.799988,-10c0.400024,-2.5 -0.400024,-5.299988 -3.5,-11.799988l-4.099976,-8.399994l0.5,-12c0.299988,-6.600006 0.799988,-13.100006 1.099976,-14.5c0.5,-2.300018 0.599976,-2.200012 2,1.5c0.700012,2.199982 2.299988,7.600006 3.400024,12zm-274.700027,-2.100006c9.299988,4.600006 13.900009,9.700012 16.599991,18.600006c1.300018,4.600006 2.200012,10.199982 2.300018,14.5c0,6.100006 -0.5,7.899994 -3.600006,14.100006c-2.399994,4.699982 -5.000015,8.299988 -7.800003,10.5c-4.400009,3.5 -4,5 0.799988,2.599976c4.199997,-2.199982 12.800003,-11.799988 14.300003,-15.899994l1.300018,-3.600006l4,5.200012c18.5,23.799988 49.099976,44.899994 105.799988,72.899994l20.700012,10.200012l-0.400024,16c-0.299988,8.799988 -1,18.299988 -1.599976,21.200012c-1,4.599976 -0.900024,5.5 1.099976,8.599976c3,4.900024 9.300018,7.700012 18.600006,8.400024c4.100006,0.299988 7.5,1 7.5,1.5c0,1.5 6.600006,3.799988 10.800018,3.799988c2.099976,0 4.299988,0.5 4.899994,1.100006c0.699982,0.699982 1.699982,0.799988 2.899994,0.100006c1.100006,-0.5 5.5,-1.200012 9.899994,-1.600006c4.399994,-0.300018 10.600006,-0.899994 13.899994,-1.200012l5.800018,-0.699982l-0.300018,15.399963c-0.299988,12.800049 -0.699982,16 -2.199982,18.200012c-2.300018,3.5 -14.700012,9.299988 -24,11.299988c-17.200012,3.600037 -25.200012,0.200012 -32.300018,-13.799988c-3.5,-6.899963 -5.5,-8.799988 -9.699982,-8.799988c-2.899994,0 -13.800018,3 -23.200012,6.299988c-14.100006,5 -32.5,7.200012 -55.5,6.400024c-21.199982,-0.700012 -37.399994,-3.5 -56.199982,-9.700012c-57.200012,-19 -99.000015,-57.899994 -119.300018,-111c-5.800003,-15.200012 -10.399994,-38.399994 -10.5,-52.600006l0,-5.100006l7.800003,-1.199982c13.5,-2.100006 37.399994,-9.300018 40.699997,-12.200012c1.600006,-1.5 2.400009,-1 3.300003,2.299988l0.899994,3.300018l0.800003,-4.5c0.400009,-2.5 1.199997,-5 1.699997,-5.700012c0.5,-0.699982 0.700012,-1.600006 0.400009,-2.100006c-1.100006,-1.899994 9.099991,-15.899994 14.599991,-20c7.300003,-5.399994 9.900009,-6.199982 20.300003,-5.899994c7.600006,0.200012 9.900009,0.600006 14.900009,3.100006zm262.900009,66.299988c2.599976,6 5.100006,12.100006 5.699982,13.700012l1,2.800018l-3.100006,-2.600006c-1.699982,-1.399994 -3.699982,-2.600006 -4.5,-2.600006c-2.699982,0 -14,-6 -16.799988,-8.899994c-2.600006,-2.700012 -2.700012,-2.900024 -0.899994,-3.5c2.399994,-0.800018 6,-4.5 6.5,-6.600006c0.299988,-1.300018 2.899994,-2.5 6.399994,-2.899994c0.600006,0 3.100006,4.699982 5.700012,10.599976zm-18.900024,56.200012c0.900024,0.800018 1.600006,2.899994 1.600006,4.899994l0,3.5l-11.199982,-0.599976c-6.200012,-0.300018 -21.400024,-0.200012 -33.800018,0.299988c-12.299988,0.5 -22.600006,0.799988 -22.699982,0.600006c-0.200012,-0.200012 -0.400024,-2 -0.600006,-4.100006l-0.200012,-3.799988l5.5,-1.300018c7.800018,-1.799988 59.200012,-1.299988 61.399994,0.5zm-76.899994,16.200012c5,1.299988 5,1.299988 6.100006,17.100006l0.700012,9.699982l-4.800018,-1.5c-2.699982,-0.799988 -5.899994,-1.399994 -7.199982,-1.399994c-2.200012,0 -2.300018,-0.299988 -2.300018,-7.299988c0,-9.400024 1,-17.700012 2.200012,-17.700012c0.5,0 2.899994,0.5 5.299988,1.100006zm72.5,0l5,1.100006l0,4.5l0,4.599976l-4.199982,-0.899994c-5.400024,-1.100006 -47.200012,-1.199982 -55.5,-0.100006l-6.300018,0.900024l0,-4.5l0,-4.5l4.800018,-1c6.5,-1.300018 49.899994,-1.5 56.199982,-0.100006zm5.100006,18.799988c0.399994,0.300018 0.399994,2.300018 0.200012,4.399994l-0.5,3.800018l-31.900024,-0.300018c-31.099976,-0.299988 -31.899994,-0.299988 -31.899994,-2.299988c0,-1.100006 -0.299988,-3 -0.600006,-4.200012c-0.5,-1.899994 -0.099976,-2.199982 3.300018,-2.599976c5.799988,-0.600006 60.699982,0.5 61.399994,1.199982zm-294.300003,21.399994c11.199997,9.400024 29.100006,21.200012 40.199997,26.600037l9.5,4.699951l-1.800003,5c-2.699997,7.600037 -4.899994,9 -16.699997,10.400024c-11.5,1.400024 -25.599991,0.900024 -31.5,-1.099976c-2.399994,-0.900024 -4.399994,-2.400024 -5.199997,-3.900024c-2.899994,-6.099976 -15.399994,-50.700012 -16.899994,-60.5l-0.600006,-4l7.600006,8.200012c4.199997,4.5 11.099991,11.099976 15.399994,14.599976zm210.199997,39.5c0,1 -1.199982,3 -2.699982,4.400024c-3.200012,2.899963 -7.700012,3.5 -31.300018,4.299988c-15.699982,0.5 -15.5,-0.400024 0.5,-2.400024c11.399994,-1.399963 15.100006,-2.199951 25,-5.5c8.899994,-3 8.5,-2.899963 8.5,-0.799988z"/>
  <path id="svg_3" d="m314.600006,153.899994c-1,1.5 1.200012,6.100006 2.899994,6.100006c2.100006,0 2.899994,-2.400009 1.5,-4.900009c-1.100006,-2.199997 -3.5,-2.800003 -4.399994,-1.199997z"/>
  <path id="svg_4" d="m267.300018,157.599991c-0.800018,2.100006 2.899994,6.900009 5.299988,6.900009c2.700012,0 2.899994,-3.300003 0.299988,-6.100006c-2.599976,-2.800003 -4.699982,-3.100006 -5.599976,-0.800003z"/>
  <path id="svg_5" d="m309.700012,156.699997c-1.300018,1.199997 -0.700012,4.099991 0.899994,4.699997c2.100006,0.800003 2.100006,0.800003 2.799988,-1c1,-2.5 -2,-5.5 -3.699982,-3.699997z"/>
  <path id="svg_6" d="m263.399994,167.5c-0.399994,0.899994 0,2.299988 0.900024,3.199997c2.099976,2.099991 4.899994,0.899994 4.5,-1.900009c-0.400024,-2.799988 -4.5,-3.799988 -5.400024,-1.299988z"/>
  <path id="svg_7" d="m112.900002,160.699997c-2.800003,2.399994 -4.199997,2.800003 -9.5,2.800003c-7,0 -9.699997,1.599991 -12,7.199997c-2.800003,6.599991 -0.900002,14 4.400002,16.699997c3.699997,1.899994 12.599998,4.399994 18.400002,5.100006c4.399994,0.599991 5,0.399994 7.699997,-2.600006c1.599998,-1.699997 4.300003,-6.5 6,-10.5c2.900002,-6.800003 3.000008,-7.699997 2.000008,-12.399994c-1.900009,-9 -10.200005,-12 -17.000008,-6.300003zm8.900002,5.5c2,2 1.400002,6.5 -1.800003,12.800003c-1.599998,3.199997 -3.299995,6 -3.699997,6.299988c-1.400002,0.800003 -15.599998,-3.299988 -17.5,-5c-2.099998,-1.899994 -2.200005,-3.299988 -0.700005,-6.699997c1.700005,-3.5 3.600006,-3.899994 8.400002,-1.599991c5.400002,2.599991 6,2.599991 7.5,-1c1.099998,-2.700012 4.400002,-6 6,-6c0.300003,0 1.099998,0.5 1.800003,1.199997z"/>
  <path id="svg_8" d="m147.300003,237.199997c-1.899994,2.5 -4.100006,7.800003 -3.199997,7.800003c0.5,0 2.300003,-1.300003 4.099991,-2.800003c2.100006,-1.900009 2.900009,-3.400009 2.5,-4.5c-0.799988,-2 -2.099991,-2.199997 -3.399994,-0.5z"/>
  <path id="svg_9" d="m136.400009,242.5c-0.900009,1.299988 -1.400009,2.899994 -1.200012,3.5c0.5,1.5 5.800003,-2.700012 5.800003,-4.600006c0,-2.300003 -2.800003,-1.600006 -4.599991,1.100006z"/>
  <path id="svg_10" d="m246.400009,203.399994c-1,0.800003 -1.600006,1.699997 -1.200012,2.100006c1.100006,1.099991 4.800003,-0.5 4.800003,-2.100006c0,-1.800003 -1.099991,-1.800003 -3.599991,0z"/>
  <path id="svg_11" d="m455.300018,246.799988c0.399994,0.600006 2.199982,2.100006 3.899994,3.400009c1.699982,1.199997 2.799988,1.699997 2.5,1c-0.399994,-0.600006 -2.200012,-2.100006 -3.899994,-3.400009c-1.700012,-1.199997 -2.800018,-1.699997 -2.5,-1z"/>
  <path id="svg_12" d="m322,254.699997c-1.399994,0.699997 -2,1.300003 -1.5,1.400009c0.600006,0 0.100006,0.399994 -1,0.899994c-1.600006,0.699982 -1.600006,0.899994 -0.399994,0.899994c1.799988,0.100006 6.700012,-3.399994 5.899994,-4.100006c-0.299988,-0.299988 -1.600006,0.100006 -3,0.900009z"/>
  <path id="svg_13" d="m496.5,261c1,1.100006 2,2 2.300018,2c0.299988,0 -0.300018,-0.899994 -1.300018,-2c-1,-1.100006 -2,-2 -2.299988,-2c-0.300018,0 0.299988,0.899994 1.299988,2z"/>
  <path id="svg_14" d="m241.400009,270.399994c2.299988,1.899994 11.399994,3.799988 15.800003,3.399994c2.5,-0.199982 1.100006,-0.799988 -5.600006,-2.100006c-4.800003,-1 -9.600006,-2.099976 -10.5,-2.399994c-1.300003,-0.399994 -1.199997,-0.100006 0.300003,1.100006z"/>
  <path id="svg_15" d="m501.100006,270.600006c0,1.099976 0.299988,1.399994 0.600006,0.599976c0.299988,-0.699982 0.199982,-1.599976 -0.100006,-1.899994c-0.299988,-0.399994 -0.600006,0.200012 -0.5,1.300018z"/>
  <path id="svg_16" d="m503.100006,279.600006c0,1.099976 0.299988,1.399994 0.600006,0.599976c0.299988,-0.699982 0.199982,-1.599976 -0.100006,-1.899994c-0.299988,-0.399994 -0.600006,0.200012 -0.5,1.300018z"/>
  <path id="svg_17" d="m292.399994,290.100006c-0.599976,1.099976 4.300018,2 7.100006,1.299988c1.399994,-0.299988 2.300018,-1 2,-1.5c-0.600006,-0.899994 -8.399994,-0.799988 -9.100006,0.200012z"/>
  <path id="svg_18" d="m425,290.699982c-7,1 -9,4.700012 -4.100006,7.600006c6.700012,3.899994 27.900024,26.600006 37.200012,39.800018c1.399994,2.099976 1.799988,2.199982 4.700012,1c1.799988,-0.800018 3.199982,-1.900024 3.199982,-2.600006c0,-2.200012 -3.799988,-9.700012 -7.5,-15c-2,-2.800018 -4.100006,-5.899994 -4.799988,-6.899994c-0.700012,-1 -2.100006,-3.100006 -3.200012,-4.5c-5.5,-7.100006 -5.899994,-6.400024 3.5,-5.800018c4.700012,0.300018 11.399994,1.300018 15,2.100006c10.100006,2.399994 12.700012,2.100006 14.5,-1.399994c3.200012,-6.100006 1.5,-8.200012 -7.399994,-9.600006c-2,-0.299988 -4.5,-0.700012 -5.600006,-0.899994c-1.100006,-0.200012 -3.799988,-0.700012 -6,-1c-14.5,-2.100006 -34.5,-3.5 -39.5,-2.800018z"/>
  <path id="svg_19" d="m267.300018,293.699982c0.899994,0.200012 2.299988,0.200012 3,0c0.599976,-0.299988 -0.100006,-0.5 -1.800018,-0.5c-1.600006,0 -2.199982,0.200012 -1.199982,0.5z"/>
  <path id="svg_20" d="m500.100006,331.600006c0,1.099976 0.299988,1.399994 0.600006,0.599976c0.299988,-0.699982 0.199982,-1.599976 -0.100006,-1.899994c-0.299988,-0.399994 -0.600006,0.200012 -0.5,1.300018z"/>
  <path id="svg_21" d="m498,338.199982c-0.699982,2.400024 -2.100006,6 -3.100006,8c-2.299988,4.400024 -2.5,7 -0.399994,4.200012c1.600006,-2 5.899994,-15.299988 5.200012,-16c-0.200012,-0.200012 -1,1.5 -1.700012,3.799988z"/>
  <path id="svg_22" d="m484,358.299988c-5.600006,2.700012 -5.399994,2.600006 -4.799988,3.300018c0.699982,0.599976 8.399994,-3.100006 9.299988,-4.600006c0.800018,-1.300018 0.899994,-1.300018 -4.5,1.299988z"/>
  <path id="svg_23" d="m489,360c-1.399994,1.100006 -2,2 -1.399994,2c1.399994,0 5,-2.700012 4.399994,-3.300018c-0.299988,-0.299988 -1.600006,0.300018 -3,1.300018z"/>
  <path id="svg_24" d="m492.300018,219c-2.300018,0.899994 -3.100006,3.399994 -1.400024,4.5c1.5,0.899994 6.200012,-1.700012 5.900024,-3.300003c-0.400024,-2 -1.700012,-2.300003 -4.5,-1.199997z"/>
  <path id="svg_25" d="m494,225.5c-1.5,1.799988 -0.5,3.5 2,3.5c1,0 2.200012,-0.5 2.5,-1c0.700012,-1.100006 -1.199982,-4 -2.5,-4c-0.399994,0 -1.299988,0.699997 -2,1.5z"/>
  <path id="svg_26" d="m519.100037,254.799988c-1.300049,2.399994 0.299988,4.200012 3.899963,4.200012c3.400024,0 5.299988,-1.399994 4.799988,-3.600006c-0.5,-2.800003 -7.299988,-3.199997 -8.699951,-0.600006z"/>
  <path id="svg_27" d="m518.400024,264.5c-0.799988,1.899994 0.299988,3.5 2.5,3.5c2.200012,0 4.5,-2.5 3.599976,-4c-0.899963,-1.5 -5.5,-1.200012 -6.099976,0.5z"/>
  <path id="svg_28" d="m515.400024,271.399994c-1.5,1.200012 -1.700012,1.799988 -0.799988,3.299988c2.399963,3.700012 11.599976,0.800018 10.099976,-3.099976c-0.799988,-2 -6.599976,-2.100006 -9.299988,-0.200012z"/>
  <path id="svg_29" d="m206.199997,201.199997c-2.299988,2.300003 -0.599991,10.800003 2.200012,10.800003c2.199997,0 2.599991,-2.700012 1.699997,-11.300003c-0.100006,-1.100006 -2.600006,-0.800003 -3.900009,0.5z"/>
  <path id="svg_30" d="m217.199997,320.600006c-2.899994,2 -3.099991,7.899994 -0.299988,9.399994c2.699997,1.399994 7.599991,1.299988 8.899994,-0.300018c1.699997,-2.199982 2.5,-7.699982 1.199997,-9.199982c-1.599991,-2 -7,-1.899994 -9.800003,0.100006zm7.300003,3.899994c0,1.5 -0.800003,2.100006 -3.199997,2.299988c-3,0.300018 -3.300003,0.100006 -3.300003,-2.299988c0,-2.399994 0.300003,-2.600006 3.300003,-2.300018c2.399994,0.200012 3.199997,0.800018 3.199997,2.300018z"/>
  <path id="svg_31" d="m237.699997,321.799988c-3.899994,4.300018 -0.199997,10.200012 6.300003,10.200012c2,0 4.100006,-0.5 4.800003,-1.200012c1.5,-1.5 1.600006,-6.299988 0.199997,-8.899994c-1.399994,-2.600006 -9,-2.700012 -11.300003,-0.100006zm8.800003,3.700012c0,2.600006 -3.699997,3.199982 -5.899994,0.899994c-1.400009,-1.399994 -1.5,-1.899994 -0.400009,-2.600006c2.400009,-1.5 6.300003,-0.5 6.300003,1.700012z"/>
  <path id="svg_32" d="m228,333c-4.899994,1.199982 -7,4.199982 -7,10c0,6.399994 3.100006,10.199982 10.699997,13c9.5,3.5 14.5,0.699982 14.5,-8.399994c0,-5.700012 -2.699997,-11.300018 -6.599991,-13.700012c-3.300003,-2 -5.900009,-2.200012 -11.600006,-0.899994zm9.400009,5.199982c2.699997,1.200012 4,5.100006 3.399994,10.400024c-0.399994,3.899994 -3.300003,4.199982 -9.600006,1c-4,-2 -5.199997,-3.200012 -5.699997,-5.600006c-1.300003,-5.899994 5.100006,-9 11.900009,-5.800018z"/>
  <path id="svg_33" d="m253,338.299988c-1.899994,0.899994 -2.599991,2.200012 -2.800003,5.100006c-0.399994,4.600006 1.900009,7.600006 5.800003,7.600006c5.5,0 8.200012,-7.800018 4,-12c-2.299988,-2.300018 -3.600006,-2.399994 -7,-0.700012zm5.399994,4.899994c1.400024,2.300018 -1.099976,5.300018 -2.999985,3.700012c-2.300003,-1.899994 -1.5,-6.399994 0.999985,-5.600006c0.5,0.200012 1.400024,1 2,1.899994z"/>
  <path id="svg_34" d="m386,92.199989c-1.100006,1.200005 -2,2.800003 -2,3.5c0,0.700005 -1.299988,1.900002 -3,2.800003c-2.699982,1.400002 -2.899994,1.900002 -2.600006,6.400002c0.200012,2.699997 0.600006,5.400002 1,6c0.400024,0.599998 3.100006,1.099998 6.100006,1.099998c6.100006,0 10.200012,2.599998 12.800018,8.199997c7.599976,16.599998 9,22.000008 8.5,34.800011c-0.100006,5.399994 -0.600006,10.199997 -1.100006,10.599991c-0.399994,0.400009 -4.899994,-0.399994 -10,-1.899994c-12.700012,-3.600006 -20.300018,-4.699997 -33.800018,-4.699997c-10.299988,0 -11.899994,0.199997 -14.299988,2.099991l-2.600006,2l-8,-7.300003c-7.5,-6.899994 -8,-7.5 -8,-11.5c0,-4.899994 -2.799988,-7.699997 -6.399994,-6.399994c-1.700012,0.699997 -3.200012,-0.199997 -8.100006,-4.600006c-3.299988,-3 -8.899994,-6.799995 -12.5,-8.599998c-5.5,-2.699997 -7.5,-3.199997 -14,-3.199997c-6.600006,0 -8.199982,0.400002 -13.799988,3.400002c-7.100006,3.899994 -12.300018,9.199997 -27.000015,27.899994l-9.699997,12.200012l-2.899994,-3.5c-3.300003,-4.100006 -7.800003,-6.800003 -10,-5.900009c-2.5,1 -3.100006,4.600006 -3.600006,22.600006c0,1.399994 -0.800003,1.800003 -3.300003,1.800003l-3.299988,0l-1.200012,-9c-0.699997,-4.900009 -1.699997,-10.100006 -2.399994,-11.5c-2.5,-5.600006 -10.100006,-1.200012 -13.899994,8c-1.200012,3 -2.5,5.5 -2.800003,5.5c-0.300003,0 -1.5,-0.700012 -2.5,-1.5c-2.900009,-2.200012 -5.5,-1.800003 -6.800003,1.099991c-1,2.100006 -1.600006,2.400009 -3.699997,1.900009c-1.400009,-0.400009 -4.600006,-0.800003 -7,-1c-5.100006,-0.400009 -6.199997,-1.5 -8.699997,-8.400009c-3.5,-10.099991 -4.700012,-12.099991 -6.700012,-12.099991c-1.099991,0 -2.899994,0.699997 -3.899994,1.699997c-1.600006,1.399994 -2,1.5 -3.5,0.099991c-1,-0.899994 -3.699997,-2.5 -6,-3.699997c-2.300003,-1.099991 -5.399994,-3.300003 -7,-4.699997c-3.800003,-3.600006 -12.099998,-8.800003 -16.200005,-10.199997c-1.899994,-0.699997 -6.599998,-1.199997 -10.5,-1.199997c-12.5,0.099991 -20.199997,5.099991 -31.399994,20.699997c-8.300003,11.599991 -13.200005,21.099991 -13.200005,25.399994c0,4.800003 6.800003,16.699997 13.300003,23.199997c11.599998,11.600006 25.900002,15.800003 41,11.800003c4.299995,-1.099991 8.199997,-2.300003 8.699997,-2.599991c1.5,-0.900009 1.199997,3.399994 -0.5,9.099991c-2.400002,8.199997 -8.900002,17 -23.400002,31.900009c-7.5,7.699982 -15.899994,16.899994 -18.599998,20.5c-2.699997,3.600006 -7.799995,10 -11.299995,14.299988c-3.400002,4.300018 -7.300003,9.600006 -8.700005,11.700012c-3.799999,6 -9,19.399994 -12.099998,31c-2.700001,9.899994 -2.900002,11.699982 -2.900002,31c0,22.5 0.700001,26.5 6.700001,38.399994c11.899998,23.700012 28.399998,37.600006 50.799999,43c11,2.600006 37.300003,6.600006 43.699997,6.600006l3.800003,0l7.199997,22.799988c4,12.5 8,25.600006 8.800003,29.200012c3.300003,13.5 8.800003,30.700012 11.600006,36.099976c4.300003,8.600037 10.800003,10.5 32.699997,9.600037c21.899994,-0.900024 25.600006,-2.299988 30.199997,-11.200012c4.100006,-7.799988 4.800003,-8 17,-3.900024c21.100006,7.100037 43,10.5 68.300018,10.600037c15.399994,0 16.799988,0.200012 17.699982,1.899963c2.200012,4 6.100006,4.900024 21.700012,4.900024c20.699982,0.099976 30.199982,-1.799988 34.699982,-6.799988c2.300018,-2.700012 2.900024,-2.299988 6.200012,3.799988c3.799988,7 8.100006,8.5 21.200012,7.700012c25.299988,-1.600037 39.199982,-8.100037 42.699982,-20.100037c1,-3.399963 1.5,-9.599976 1.5,-19.299988l0,-14.399994l6.899994,0.300018c9.800018,0.399994 10.100006,0 10.100006,-13.300018l0,-10.799988l3.800018,-0.700012c5.299988,-1 10.899994,-4 12.800018,-6.899994c1.399963,-2.100006 1.599976,-4.5 1.199951,-13.700012l-0.5,-11.099976l6.200012,-6.600006c9.100037,-9.800018 15.5,-18 15.5,-19.899994c0,-1 -0.700012,-2.800018 -1.599976,-4c-1.400024,-2.100006 -1.400024,-2.700012 0.700012,-7.700012l2.299988,-5.5l-2.600037,-7.800018c-2.299988,-6.699982 -2.5,-8.5 -1.799988,-14.199982c1.100037,-8.300018 2.700012,-23.399994 4,-38c0.600037,-6.300018 1.900024,-15.600006 3,-20.600006c1,-5 3,-16.5 4.400024,-25.5c1.399963,-9 3,-19.200012 3.599976,-22.5c0.5,-3.399994 1,-13.299988 1,-22.100006c0,-24 -1.899963,-31.299988 -9.299988,-37c-5.900024,-4.399994 -15.200012,-7.299988 -26.200012,-8c-8.5,-0.5 -9.399994,-0.799988 -10.399994,-2.899994c-1.5,-3.300003 -5.100006,-3.100006 -8.600006,0.600006l-2.899994,3l-11.799988,0l-11.800018,0l-2.399994,-3.900009c-3.100006,-4.899994 -16,-15.300003 -27.600006,-22.099991c-4.899994,-2.900009 -8.699982,-5.700012 -8.399994,-6.100006c0.299988,-0.5 0.899994,-6.100006 1.5,-12.5c1.5,-17.399994 -1.600006,-31.100006 -10,-44.099998c-4.299988,-6.700005 -14.100006,-16.700005 -20,-20.300003c-2.200012,-1.400002 -4.700012,-3.699997 -5.600006,-5.300003c-2,-3.299995 -5.600006,-3.599998 -8.5,-0.5zm5,5.800003c0,0.5 2.5,2.800003 5.5,5.099998c5,3.700005 7.5,7.800003 7.5,12.099998c0,0.5 -2.799988,-1.5 -6.199982,-4.199997c-4,-3.199997 -7.200012,-5 -8.900024,-5c-3.599976,0 -4.399994,-3.199997 -1.599976,-6.5c2.299988,-2.599998 3.699982,-3.199997 3.699982,-1.5zm20,18.199997c4.5,5.700005 4.600006,6.600006 1.899994,16.300011l-1.099976,4l-2.5,-6.5c-2,-5.300011 -4,-19.000008 -2.800018,-19.000008c0.200012,0 2.200012,2.400002 4.5,5.199997zm10.5,19.500008c1.5,4.899994 1.5,5.399994 -0.399994,9c-1,2.099991 -3.100006,4.899994 -4.5,6.199997c-2.399994,2.300003 -2.600006,2.300003 -2.700012,0.5c0,-1 -0.399994,-4.399994 -0.799988,-7.399994c-0.600006,-3.900009 -0.399994,-6.100006 0.5,-7.5c0.700012,-1.100006 1.799988,-3.900009 2.5,-6.300003c1.200012,-4.200005 1.299988,-4.300003 2.600006,-2c0.699982,1.300003 2,4.599991 2.799988,7.5zm-122.699982,-5.699997c3.799988,1.799988 8.899994,5.5 12.599976,9c5.700012,5.399994 6.600006,6 8.800018,5.099991c2.5,-0.899994 2.600006,-0.800003 3,3.900009c0.299988,3.299988 1.399994,6 3.399994,8.699997c2.399994,3.099991 10.399994,15.899994 10.399994,16.599991c0,0.100006 -3.600006,0.300003 -7.899994,0.5c-4.299988,0.100006 -10.100006,0.900009 -12.700012,1.700012c-7.199982,2.199997 -8.5,1.899994 -16.399994,-3.200012l-7.299988,-4.699997l3,-0.800003c5.799988,-1.5 5.899994,-2.899994 1.399994,-12c-5.600006,-11.5 -9.299988,-15.799988 -13.5,-15.799988c-3.399994,0 -5.600006,1.5 -5.600006,3.799988c0,1 0.800018,1.200012 2.899994,0.700012c2.800018,-0.600006 3.100006,-0.300003 8,8.699997l5,9.300003l-3,1.299988c-1.699982,0.700012 -3.299988,2.200012 -3.599976,3.200012c-0.300018,1.199997 -1.900024,2.399994 -4.200012,3c-2,0.5 -6.299988,2.5 -9.5,4.5c-3.200012,1.899994 -6.100006,3.5 -6.5,3.5c-0.399994,0 -1.5,-1.400009 -2.5,-3.100006c-1.299988,-2.100006 -2.399994,-2.899994 -3.899994,-2.699997c-3,0.399994 -3.300018,3.5 -0.899994,6.800003l2.099976,2.699997l-7.799988,6.300003c-4.300003,3.5 -8.300003,6.099991 -8.699997,5.899994c-0.5,-0.199997 -0.900009,-3.100006 -1,-6.399994c0,-3.300003 -0.700012,-7.800003 -1.400009,-10.100006l-1.300003,-4l11.800003,-15.5c18.200012,-23.800003 21.899994,-27.300003 30.399994,-29c6.5,-1.200005 8.5,-0.900002 14.900024,2.100006zm-175.70002,14.599991c2.800003,1.400009 7.099998,4.400009 9.599998,6.699997c6.300003,5.800003 14.300003,17.400009 14.300003,20.700012c0,2.599991 -3.300003,12.899994 -6.399994,20.199997c-2.100006,5 -2,8.399994 0.399994,10.800003c2.300003,2.299988 1.100006,3.399994 -2.300003,2.099991c-1.699997,-0.699997 -3.899994,-0.5 -7.299988,0.600006c-18.500008,5.699997 -26.200005,6 -36.000008,1c-6.300003,-3.199997 -15.5,-12.900009 -19.099998,-20.100006l-2.700005,-5.599991l3.100006,-6.300003c3.299995,-6.699997 12.899994,-20.100006 18.399994,-25.600006c7.5,-7.5 18.600006,-9.300003 28,-4.5zm300.500008,16c-0.600006,1.600006 -6.5,5.400009 -8.299988,5.400009c-0.800018,0 -1.300018,-1.400009 -1.300018,-3.900009c0,-3.199997 0.600006,-4.300003 3.399994,-6.399994c1.800018,-1.400009 3.900024,-4.100006 4.700012,-5.900009l1.399994,-3.299988l0.300018,6.399994c0.199982,3.5 0.099976,7 -0.200012,7.699997zm-267.900009,1.199997c1.100006,-0.899994 1.600006,-0.899994 2.400009,0.300003c0.5,0.800003 0.899994,2.100006 0.899994,2.900009c0,0.799988 0.900009,3 2,4.799988c2.600006,4.200012 2.5,6.400009 -0.099991,8.800003c-3.200012,2.900009 -2.400009,13 1.799988,21.5c1.800003,3.5 2.800003,6.5 2.300003,6.699997c-1.599991,0.600006 -1.199997,6 0.600006,8.700012c2.5,3.799988 1,5.899994 -7.400009,10.199997c-9.799988,5.199997 -10.399994,7.199997 -3.299988,10.800003c2.799988,1.399994 5.099991,2.799988 5.099991,3.099991c0,0.400009 -1.399994,3.199997 -3,6.300003c-4.099991,7.600006 -18.699997,24.200012 -39.400002,44.600006c-16,15.699982 -17.599998,17.699982 -21.799995,26c-2.5,4.899994 -5.800003,12.799988 -7.400002,17.5c-2.699997,7.799988 -2.900002,9.699982 -2.800003,22c0,11.799988 0.400002,14.5 2.700005,21.600006c4.799995,14.5 18.299995,30.299988 31.199997,36.399994c3.300003,1.600006 9.900009,3.700012 14.800003,4.700012c7,1.399994 8.800003,2.199982 9.300003,3.799988c0.399994,1.100006 2.599991,6.100006 4.899994,11.200012l4.300003,9.199982l-10.600006,-0.5c-12.899994,-0.600006 -28.399994,-2.899994 -36.799995,-5.5c-18.900002,-5.799988 -38,-26.699982 -44.900002,-48.899994c-2.5,-8.300018 -3.200001,-33 -1.099998,-44.600006c3.299999,-19.100006 9.800003,-35.200012 18.800003,-46.600006c2.899994,-3.699982 8.899994,-11.299988 13.399994,-17c4.400002,-5.699982 13,-15.299988 19.100006,-21.299988c17.700005,-17.600006 24.299995,-27.800003 26.200005,-40.5c0.599991,-4.400009 0.699997,-4.5 3.899994,-4.200012c2.699997,0.300003 3.899994,-0.299988 6.800003,-3.299988c4,-4.300003 4.199997,-6.400009 1.099991,-10.100006l-2.299988,-2.699997l3.899994,-10.100006c4.699997,-12 5.300003,-18.899994 2.100006,-23.300003c-3.600006,-5 -3.900009,-5.799988 -1,-3.5c2.299988,1.800003 3.199997,2 4.299988,1zm81.300003,17c2.300003,6.100006 2.5,7.5 0.800003,7c-0.699997,-0.199997 -3.399994,-1 -6,-1.799988l-4.699997,-1.400009l0.300003,-9.5c0.199997,-5.300003 0.399994,-9.800003 0.5,-10.099991c0.299988,-1.200012 7.299988,10.899994 9.099991,15.799988zm-30.5,-9.199997c1.5,10.300003 1.800003,12 2.600006,12.900009c0.5,0.699997 -1.400009,2 -5.199997,3.699997l-5.900009,2.599991l0,-3.099991c0,-5.300003 6.100006,-21.900009 7.5,-20.5c0.300003,0.199997 0.699997,2.199997 1,4.399994zm182.600006,-1.300003c12.600006,3.300003 34.5,12.100006 44.5,18c4.399994,2.600006 12.399994,8.300003 17.700012,12.700012l9.699982,8l-1.5,3.099991c-1.600006,3 -1.600006,3 -4.299988,1.300003c-21.399994,-14.199997 -47,-25.800003 -69.300018,-31.300003c-7.299988,-1.800003 -32.899994,-6.099991 -36.599976,-6.099991c-1.200012,0 -1.100006,-0.800003 1,-6.400009l1.099976,-2.899994l14,0.599991c10.300018,0.400009 16.700012,1.200012 23.700012,3zm34.200012,0.400009c-0.300018,2.099991 -0.700012,3.899994 -0.800018,4.099991c-0.199982,0.200012 -1.699982,-0.299988 -3.5,-1l-3.299988,-1.399994l3.899994,-2.600006c2.200012,-1.5 4,-2.699997 4.100006,-2.699997c0.100006,-0.099991 -0.100006,1.600006 -0.399994,3.600006zm-127.600006,8.5c11.5,6.899994 14.399994,8.800003 16.299988,11c1.100006,1.300003 5.5,2.199997 18.200012,3.800003c20.100006,2.399994 44.5,7.799988 60.299988,13.199997c15.700012,5.399994 41.700012,20.599991 65.5,38.300003c11.300018,8.399994 12.800018,9.199997 16.100006,8.799988c4.700012,-0.599991 22.799988,3.300003 25.200012,5.5c3,2.700012 4.599976,6.600006 7.199982,17c3,12.300018 4.899994,24.800018 4,27c-0.600006,1.600006 -0.699982,1.600006 -1.600006,-0.100006c-1.799988,-3.199982 -2.799988,-0.699982 -1.399994,3.300018c2.200012,6.199982 3,16 1.5,17c-1.799988,1.100006 -5,11.600006 -5,16.199982c0,2.100006 -1.100006,6.300018 -2.5,9.400024c-1.399994,3.099976 -2.5,7.299988 -2.5,9.399994c0,6 -0.799988,6.199982 -20.5,5.699982l-17.600006,-0.599976l-9.699982,-6.5c-10.5,-7 -15.200012,-11 -15.200012,-12.900024c0,-0.699982 -4,-5.299988 -8.899994,-10.399994c-11.700012,-12 -14.399994,-17.5 -17.5,-35.399994c-1.399994,-7.799988 -3.5,-14.100006 -8.700012,-25.700012c-3.099976,-6.899994 -10,-13.5 -18.099976,-17.299988c-6.700012,-3.100006 -8.100006,-3.399994 -16.800018,-3.399994c-8.299988,0 -10.299988,0.399994 -15.699982,2.899994c-3.5,1.600006 -6.300018,3.299988 -6.300018,3.799988c0,0.5 -0.399994,0.600006 -1,0.300018c-0.5,-0.300018 -1,-0.200012 -1,0.399994c0,0.600006 -0.600006,0.799988 -1.299988,0.5c-0.700012,-0.200012 -4.899994,2 -9.300018,5.100006c-12.799988,8.899994 -17.5,11.399994 -24.899994,13c-8.600006,2 -27.199982,3.600006 -38,3.5c-4.399994,-0.100006 -7.699982,0.100006 -7.399994,0.399994c1.100006,1.200012 15.899994,2.700012 26.399994,2.700012c16.899994,0 23.700012,-2.300018 38.100006,-12.700012c9.299988,-6.700012 19.200012,-11.5 29.600006,-14.399994c6.899994,-1.900009 8,-1.900009 14.199982,-0.600006c11.600006,2.399994 24.700012,12.5 30.600006,23.600006c0.700012,1.399994 1.899994,6.100006 2.600006,10.5c0.700012,4.399994 1.799988,11.100006 2.399994,15c1.100006,7.100006 4.200012,16.100006 6.800018,20.199982c2.299988,3.600006 0,2.700012 -3.100006,-1.199982c-3.5,-4.300018 -4.300018,-7 -5.600006,-16.300018c-0.600006,-4.399994 -1.899994,-9 -3.5,-11.799988c-1.399994,-2.600006 -2.600006,-5.399994 -2.600006,-6.299988c0,-2.5 -8.399994,-12.600006 -13.299988,-16c-2.5,-1.700012 -8,-4.200012 -12.300018,-5.700012c-6.699982,-2.200012 -9,-2.600006 -15.599976,-2.100006c-4.700012,0.300018 -9.400024,1.300018 -12,2.5c-2.400024,1.200012 -6.5,3 -9.100006,4.100006c-2.600006,1.100006 -6.700012,3.600006 -9,5.5c-21.700012,18.200012 -29.899994,21 -55.5,18.700012c-10.700012,-1 -13.900009,-1.700012 -24.500015,-5.700012c-14.899994,-5.700012 -20.5,-8.5 -23.299988,-11.600006c-2.700012,-2.899994 -5.400009,-11 -5.400009,-16.100006l0,-3.899994l5.199997,4.600006c5.900009,5.100006 16.5,11 21.800003,12.100006l3.5,0.699982l-4.5,-2.899994c-2.5,-1.600006 -6.699997,-4.199982 -9.5,-5.799988c-2.699997,-1.5 -7,-4.399994 -9.399994,-6.399994c-4.199997,-3.400024 -4.300003,-3.700012 -3.800003,-8.100006c0.5,-4.300003 3.899994,-12 8.100006,-18.200012c1.5,-2.299988 1.599991,-2.899994 0.399994,-3.299988c-0.800003,-0.300003 -1.5,-1.200012 -1.5,-2c0,-1.800003 0.699997,-1.800003 3,-0.100006c1.600006,1.300003 1.600006,1.600006 -0.5,6.199997c-2.600006,5.800003 -4,15.400009 -2.199997,14.699997c0.699997,-0.199997 1.699997,-3 2.199997,-6.199997c0.600006,-3.199997 1.899994,-7.800003 3,-10.199997c1.100006,-2.399994 2.300003,-5.300003 2.699997,-6.399994c0.600006,-2.200012 6.900009,-7.100006 13.199997,-10.300003c3,-1.600006 4.200012,-2.900009 4.700012,-5.300003c0.299988,-1.699997 0.299988,-3.5 0,-4c-0.700012,-1.199997 -5.400009,2 -5.400009,3.699997c0,1.800003 -6.199997,5.600006 -12.199997,7.600006l-4.699997,1.5l1.599991,-3.100006c2.700012,-5.199997 13.200012,-15.399994 25.100006,-24.199997c17.599991,-13.199997 26.800003,-18.5 33.599991,-19.300003c0.5,-0.099991 3.300018,1.400009 6.300018,3.100006zm-104.700012,6.899994c0,2.699997 -0.399994,4.900009 -1,4.900009c-0.5,0 -1,-2.5 -1,-5.600006c0,-3.399994 0.400009,-5.300003 1,-4.899994c0.600006,0.299988 1,2.799988 1,5.599991zm-10.5,-3l3,0.900009l0.100006,9.399994l0.099991,9.399994l-5.5,1.600006c-3.099991,0.800003 -5.699997,1.5 -5.699997,1.300003c-2.399994,-3.199997 -5.5,-10.5 -6.399994,-15c-1.199997,-5.300003 -1.100006,-6 0.5,-7.900009c1.5,-1.599991 2.599991,-1.899994 6.399994,-1.299988c2.5,0.299988 5.900009,1 7.5,1.599991zm178.5,0.400009c43.200012,5.799988 81.100006,23.799988 111.800018,53c11.799988,11.199997 11.899994,11.899994 -1.100006,-8.200012c-4.700012,-7.199997 -5.5,-8.899994 -3.700012,-7.799988c0.5,0.299988 5.600006,-0.600006 11.200012,-2c5.699982,-1.400009 11.299988,-2.5 12.5,-2.5c1.199982,0 3.799988,-1.600006 5.600006,-3.5l3.5,-3.600006l1,2.899994l1,2.800003l9.5,0.100006c11.899994,0 18.600006,2.199997 24.199982,7.800003c2.299988,2.299988 4.600037,5.799988 5.299988,8.099991c1.600037,5.5 1.5,17.600006 -0.199951,30.500015c-0.800049,5.699982 -1.700012,13.299988 -2.100037,16.899994c-1.599976,16.799988 -6.200012,45.100006 -7.5,46.399994c-0.5,0.5 -1.299988,-1 -2,-3.5c-2.399963,-9.399994 -3.399963,-11.600006 -8.299988,-18.399994c-4.400024,-6.100006 -5.200012,-8 -6.400024,-15c-1.899994,-11.600006 -5.999969,-25.600006 -8.499969,-28.899994l-2.100006,-2.900009l3.399994,-2.800003c3.200012,-2.600006 3.299988,-2.899994 2.200012,-6c-0.700012,-1.800003 -1.100006,-3.399994 -0.900024,-3.600006c0.700012,-0.699997 17.800018,-6.299988 19.100006,-6.299988c0.799988,0 1.700012,0.899994 2,2.099991c0.799988,2.5 2.900024,2 3.299988,-0.899994c0.5,-3 -3.199951,-6.199997 -7.099976,-6.199997c-3.5,0 -10.700012,1.899994 -19.399994,5.199997c-4.300018,1.599991 -5.300018,2.399994 -5.300018,4.199997c0,1.300003 0.700012,2.899994 1.5,3.600006c2.100006,1.699997 1.899994,3 -0.5,3c-1.299988,0 -2,0.699997 -2,2c0,1.099991 -0.100006,2 -0.199982,2c-0.200012,0 -3.900024,-0.700012 -8.300018,-1.5c-4.399994,-0.900009 -10.399994,-1.5 -13.299988,-1.400009c-5.200012,0.300003 -5.399994,0.199997 -17.5,-8.800003c-15.200012,-11.199997 -41,-28.099991 -45.700012,-29.799988c-1.899994,-0.700012 -6.199982,-2.600006 -9.5,-4.300003c-3.299988,-1.600006 -9.100006,-3.900009 -13,-5.199997c-3.799988,-1.300003 -9,-3.100006 -11.5,-4.100006c-2.5,-1 -8.5,-2.5 -13.5,-3.399994c-4.899994,-0.800003 -12.100006,-2.200012 -16,-3c-3.799988,-0.800003 -13.5,-2.200012 -21.5,-3.100006c-14.399994,-1.699997 -18.5,-2.800003 -15.799988,-4.5c2.100006,-1.399994 34.5,-1 45.799988,0.600006zm-129.399994,6.399994c3.800003,1.100006 7.099991,3.800003 8.899994,7.199997c1.300003,2.5 1.199997,2.800003 -2.5,6.400009c-3.800003,3.699997 -3.800003,3.699997 -4.5,1.399994c-1.099991,-3.399994 -2.399994,-4.899994 -4.099991,-4.199997c-1.100006,0.399994 -1.300003,2.199997 -1.100006,7.599991c0.199997,6.400009 0,7.200012 -1.800003,7.5c-1.099991,0.200012 -2.800003,1.100006 -3.800003,2c-1.5,1.300003 -2.299988,1.400009 -5.299988,0.300003c-3.600006,-1.300003 -5.100006,-0.800003 -8.100006,2.699997c-2.800003,3.300003 -13.300003,-1.699997 -13.300003,-6.199997c0,-3.5 2.699997,-10.399994 6.300003,-16.399994c2.600006,-4.300003 4,-5.5 8.100006,-7.100006c5.399994,-2 16.399994,-2.699997 21.199997,-1.199997zm-38.100006,34c0.300003,0.5 -0.599991,2.199997 -2,3.699997c-2.800003,3 -3.099991,4.400009 -1.300003,6.199997c2.100006,2.100006 5.900009,1.300003 9.200012,-2.099991c2.399994,-2.300003 4,-3.100006 6,-2.900009c1.5,0.200012 2.599991,0.800003 2.399994,1.300003c-0.199997,0.5 -4.800003,3.400009 -10.199997,6.300003c-9.600006,5.100006 -10,5.199997 -15.400009,4.5c-3.099991,-0.399994 -6.5,-1.199997 -7.699997,-1.800003c-1.099991,-0.5 -4.099991,-1.699997 -6.699997,-2.699997c-2.699997,-0.899994 -4.800003,-2.100006 -4.800003,-2.5c0,-0.5 4.600006,-3.100006 10.300003,-5.899994c7.699997,-3.700012 11.300003,-5 14.899994,-5c2.600006,0 4.900009,0.399994 5.300003,0.899994zm3.5,4.600006c-0.699997,0.899994 -1.5,1.299988 -1.800003,1c-0.299988,-0.200012 0.100006,-1.100006 0.800003,-2c0.699997,-0.900009 1.5,-1.300003 1.800003,-1c0.300003,0.199997 -0.100006,1.099991 -0.800003,2zm-24.099991,16.899994c3.099991,1.100006 3.199997,1.300003 1.599991,2.600006c-1,0.799988 -3.800003,2.599991 -6.399994,4c-4.199997,2.299988 -5.900009,4.799988 -8.600006,12.600006c0,0.099976 -1.199997,0.399994 -2.699997,0.799988c-2.600006,0.600006 -2.5,0.299988 2.699997,-6.899994c2.900009,-4.100006 5.900009,-9.100006 6.5,-11c1.300003,-3.800003 1.800003,-4 6.900009,-2.100006zm36.599991,12.199997c1.300003,2.000015 1.400009,2.800003 0.5,3.400009c-0.599991,0.399994 -1.300003,2.699982 -1.399994,5c-0.199997,4.100006 -1.5,5.600006 -4.900009,5.899994c-1.299988,0.100006 0.400009,-15.300003 1.700012,-16.100006c1.799988,-1.199997 2.299988,-1 4.099991,1.800003zm-12,4.599991c-0.399994,1.800018 -0.800003,3.400024 -1,3.600006c-0.099991,0.100006 -2.599991,-0.199982 -5.599991,-0.600006l-5.400009,-0.899994l5.5,-2.5c7.100006,-3.399994 7.300003,-3.399994 6.5,0.399994zm168,7.800018c1.100006,0.399994 -1.699982,0.600006 -6.5,0.299988c-4.699982,-0.299988 -8.699982,-0.699982 -8.899994,-0.899994c-0.899994,-0.799988 13.5,-0.200012 15.399994,0.600006zm17.300018,7.399994c2,1.299988 5,3.899994 6.699982,5.700012l3,3.399994l-3.699982,-3.399994c-2,-1.800018 -5.300018,-4.400024 -7.5,-5.700012c-2.100006,-1.299988 -3.5,-2.399994 -3,-2.399994c0.399994,0 2.399994,1.100006 4.5,2.399994zm-240.300018,5.100006c-0.800003,4 -2,6.399994 -4.699997,9.199982c-4.100006,4.300018 -7.100006,12.700012 -6.100006,17.300018c0.400009,2.399994 -0.599991,4.5 -6.499992,12.899994c-9.200005,13 -9.5,13.600006 -8.900002,18.600006c0.5,5.100006 3.599998,9.399994 11,15.5c5.5,4.399994 5.5,4.600006 6.100006,11c1.5,15.799988 2.799988,25.100006 4.699997,33.200012c1.099991,4.799988 1.699997,9.199982 1.399994,9.899994c-1.599991,2.399994 -17.699997,-1.5 -24.5,-6c-5.699997,-3.800018 -14.299995,-15 -17.699997,-23.200012c-2.5,-6 -2.700005,-7.299988 -2.700005,-22.899994l-0.099998,-16.5l3.700005,-9.200012c5.699997,-14.100006 9.5,-19.399994 28.099998,-38c9.5,-9.399994 17.199997,-17.199982 17.300003,-17.199982c0,-0.100006 -0.5,2.399994 -1.100006,5.399994zm220,-2.5c0.800018,1.299988 -3.5,1.299988 -5.5,0c-1.100006,-0.700012 -0.699982,-1 1.700012,-1c1.699982,0 3.5,0.399994 3.799988,1zm-18,2.699982c-0.5,1 -1,4.700012 -1.199982,8.300018c-0.400024,5.600006 -0.100006,7.199982 2.399994,12c3.399994,6.600006 9.699982,11.299988 17.899994,13.100006c4.700012,1.099976 6.200012,1 11,-0.5c5.399994,-1.700012 12.399994,-7.300018 14.899994,-12c0.899994,-1.600006 1.600006,-0.800018 4.399994,5.899994c1.800018,4.299988 4.100006,11.899994 5.200012,16.899994c1.100006,5 2.399994,10.100006 2.899994,11.299988l0.899994,2.200012l-5.099976,-2c-2.800018,-1.100006 -6,-2.5 -7.100006,-3.100006c-1.100006,-0.5 -6.899994,-2.799988 -12.899994,-4.899994c-7.800018,-2.799988 -15.700012,-6.799988 -28.100006,-14.299988c-9.5,-5.700012 -20.200012,-11.800018 -23.700012,-13.600006c-3.600006,-1.800018 -7.5,-4 -8.799988,-4.800018c-2.300018,-1.5 -2.300018,-1.5 3,-5c5.299988,-3.599976 21.100006,-11 23.699982,-11.099976c0.900024,-0.100006 1.100006,0.5 0.600006,1.599976zm13.800018,4.400024c2.099976,0.5 5.399994,0.5 7.5,0.099976c3.299988,-0.799988 4,-0.599976 5.599976,1.5c1,1.400024 2,4.600006 2.300018,7.100006c0.600006,5.700012 1.799988,8.100006 4.5,9.100006c1.899994,0.700012 1.899994,0.799988 -0.800018,2.700012c-2.199982,1.399994 -4.599976,1.899994 -9.5,1.899994c-5.5,0 -7.199982,-0.399994 -10.799988,-2.800018c-4.700012,-3.099976 -8,-9.099976 -8.100006,-14.5c0,-4.599976 1.700012,-7.5 3.800018,-6.699982c0.899994,0.399994 3.399994,1.100006 5.5,1.600006zm22.299988,1c1.899994,2.199982 1.899994,2.199982 -0.299988,1c-1.300018,-0.600006 -2.300018,-1.600006 -2.300018,-2.100006c0,-1.5 0.5,-1.200012 2.600006,1.100006zm0.399994,8.199982l3.100006,1.399994l-2.5,1.700012c-2.600006,1.600006 -2.600006,1.600006 -3.600006,-0.899994c-1.600006,-4.100006 -1.600006,-4.100006 3,-2.200012zm141.100037,24.200012c2.899963,11.399994 4.899963,27.299988 4.799988,39.5l0,10.5l-2.400024,-6.800018c-1.5,-4.299988 -2.200012,-7.899994 -1.799988,-10c0.400024,-2.5 -0.400024,-5.299988 -3.5,-11.799988l-4.099976,-8.399994l0.5,-12c0.299988,-6.600006 0.799988,-13.100006 1.099976,-14.5c0.5,-2.300018 0.599976,-2.200012 2,1.5c0.700012,2.199982 2.299988,7.600006 3.400024,12zm-274.700027,-2.100006c9.299988,4.600006 13.900009,9.700012 16.599991,18.600006c1.300018,4.600006 2.200012,10.199982 2.300018,14.5c0,6.100006 -0.5,7.899994 -3.600006,14.100006c-2.399994,4.699982 -5.000015,8.299988 -7.800003,10.5c-4.400009,3.5 -4,5 0.799988,2.599976c4.199997,-2.199982 12.800003,-11.799988 14.300003,-15.899994l1.300018,-3.600006l4,5.200012c18.5,23.799988 49.099976,44.899994 105.799988,72.899994l20.700012,10.200012l-0.400024,16c-0.299988,8.799988 -1,18.299988 -1.599976,21.200012c-1,4.599976 -0.900024,5.5 1.099976,8.599976c3,4.900024 9.300018,7.700012 18.600006,8.400024c4.100006,0.299988 7.5,1 7.5,1.5c0,1.5 6.600006,3.799988 10.800018,3.799988c2.099976,0 4.299988,0.5 4.899994,1.100006c0.699982,0.699982 1.699982,0.799988 2.899994,0.100006c1.100006,-0.5 5.5,-1.200012 9.899994,-1.600006c4.399994,-0.300018 10.600006,-0.899994 13.899994,-1.200012l5.800018,-0.699982l-0.300018,15.399963c-0.299988,12.800049 -0.699982,16 -2.199982,18.200012c-2.300018,3.5 -14.700012,9.299988 -24,11.299988c-17.200012,3.600037 -25.200012,0.200012 -32.300018,-13.799988c-3.5,-6.899963 -5.5,-8.799988 -9.699982,-8.799988c-2.899994,0 -13.800018,3 -23.200012,6.299988c-14.100006,5 -32.5,7.200012 -55.5,6.400024c-21.199982,-0.700012 -37.399994,-3.5 -56.199982,-9.700012c-57.200012,-19 -99.000015,-57.899994 -119.300018,-111c-5.800003,-15.200012 -10.399994,-38.399994 -10.5,-52.600006l0,-5.100006l7.800003,-1.199982c13.5,-2.100006 37.399994,-9.300018 40.699997,-12.200012c1.600006,-1.5 2.400009,-1 3.300003,2.299988l0.899994,3.300018l0.800003,-4.5c0.400009,-2.5 1.199997,-5 1.699997,-5.700012c0.5,-0.699982 0.700012,-1.600006 0.400009,-2.100006c-1.100006,-1.899994 9.099991,-15.899994 14.599991,-20c7.300003,-5.399994 9.900009,-6.199982 20.300003,-5.899994c7.600006,0.200012 9.900009,0.600006 14.900009,3.100006zm262.900009,66.299988c2.599976,6 5.100006,12.100006 5.699982,13.700012l1,2.800018l-3.100006,-2.600006c-1.699982,-1.399994 -3.699982,-2.600006 -4.5,-2.600006c-2.699982,0 -14,-6 -16.799988,-8.899994c-2.600006,-2.700012 -2.700012,-2.900024 -0.899994,-3.5c2.399994,-0.800018 6,-4.5 6.5,-6.600006c0.299988,-1.300018 2.899994,-2.5 6.399994,-2.899994c0.600006,0 3.100006,4.699982 5.700012,10.599976zm-18.900024,56.200012c0.900024,0.800018 1.600006,2.899994 1.600006,4.899994l0,3.5l-11.199982,-0.599976c-6.200012,-0.300018 -21.400024,-0.200012 -33.800018,0.299988c-12.299988,0.5 -22.600006,0.799988 -22.699982,0.600006c-0.200012,-0.200012 -0.400024,-2 -0.600006,-4.100006l-0.200012,-3.799988l5.5,-1.300018c7.800018,-1.799988 59.200012,-1.299988 61.399994,0.5zm-76.899994,16.200012c5,1.299988 5,1.299988 6.100006,17.100006l0.700012,9.699982l-4.800018,-1.5c-2.699982,-0.799988 -5.899994,-1.399994 -7.199982,-1.399994c-2.200012,0 -2.300018,-0.299988 -2.300018,-7.299988c0,-9.400024 1,-17.700012 2.200012,-17.700012c0.5,0 2.899994,0.5 5.299988,1.100006zm72.5,0l5,1.100006l0,4.5l0,4.599976l-4.199982,-0.899994c-5.400024,-1.100006 -47.200012,-1.199982 -55.5,-0.100006l-6.300018,0.900024l0,-4.5l0,-4.5l4.800018,-1c6.5,-1.300018 49.899994,-1.5 56.199982,-0.100006zm5.100006,18.799988c0.399994,0.300018 0.399994,2.300018 0.200012,4.399994l-0.5,3.800018l-31.900024,-0.300018c-31.099976,-0.299988 -31.899994,-0.299988 -31.899994,-2.299988c0,-1.100006 -0.299988,-3 -0.600006,-4.200012c-0.5,-1.899994 -0.099976,-2.199982 3.300018,-2.599976c5.799988,-0.600006 60.699982,0.5 61.399994,1.199982zm-294.300003,21.399994c11.199997,9.400024 29.100006,21.200012 40.199997,26.600037l9.5,4.699951l-1.800003,5c-2.699997,7.600037 -4.899994,9 -16.699997,10.400024c-11.5,1.400024 -25.599991,0.900024 -31.5,-1.099976c-2.399994,-0.900024 -4.399994,-2.400024 -5.199997,-3.900024c-2.899994,-6.099976 -15.399994,-50.700012 -16.899994,-60.5l-0.600006,-4l7.600006,8.200012c4.199997,4.5 11.099991,11.099976 15.399994,14.599976zm210.199997,39.5c0,1 -1.199982,3 -2.699982,4.400024c-3.200012,2.899963 -7.700012,3.5 -31.300018,4.299988c-15.699982,0.5 -15.5,-0.400024 0.5,-2.400024c11.399994,-1.399963 15.100006,-2.199951 25,-5.5c8.899994,-3 8.5,-2.899963 8.5,-0.799988z"/>
  <path transform="rotate(-129.294, 295.135, 245.892)" d="m268.537811,269.931091c-7,-0.981354 -9,-4.612396 -4.100006,-7.458344c6.700043,-3.827301 27.900055,-26.104248 37.200043,-39.058228c1.399994,-2.060837 1.799988,-2.158966 4.700012,-0.981354c1.799988,0.78511 3.199982,1.864609 3.199982,2.551544c0,2.159012 -3.799988,9.519211 -7.5,14.720413c-2,2.747833 -4.100006,5.790024 -4.799988,6.771393c-0.700012,0.981354 -2.100006,3.042221 -3.200012,4.416122c-5.5,6.967682 -5.899994,6.280731 3.5,5.691925c4.700012,-0.294434 11.399994,-1.275803 15,-2.060883c10.100006,-2.355255 12.700012,-2.060867 14.5,1.373901c3.200012,5.986328 1.5,8.047211 -7.399994,9.421112c-2,0.294373 -4.5,0.686951 -5.600006,0.883209c-1.100006,0.196289 -3.799988,0.686951 -6,0.981354c-14.5,2.060883 -34.5,3.434753 -39.500031,2.747833z"/>
  <path d="m410.118774,272.307343c3.401337,5.10202 6.999207,9.190765 11.904724,15.306091c2.66037,3.316498 5.289307,6.628265 7.653046,9.353699c2.785706,3.211945 4.872101,7.847656 8.503357,11.904724c2.406036,2.688202 5.70929,5.282043 7.653046,7.653046c0.762421,0.929993 2.391724,2.726898 4.251709,4.251709c2.371002,1.943756 3.401337,2.550995 4.251678,3.401337l0.850342,0.850342l0.850342,0l0.850342,0.850342" id="svg_40" fill-opacity="null" stroke-opacity="null" stroke-width="null" stroke="null" fill="none"/>
 </g>
</svg>